<?xml version="1.0" encoding="UTF-8"?>
<svg width="700pt" height="700pt" version="1.1" viewBox="0 0 700 700" xmlns="http://www.w3.org/2000/svg" xmlns:xlink="http://www.w3.org/1999/xlink">

    <g>
        <path d="m285.34 370.21h11.203c1.2188 0 2.3906 0.49219 3.2461 1.3633 0.85547 0.875 1.3242 2.0547 1.3008 3.2773v10.938c0 2.5117-2.0352 4.5469-4.5469 4.5469h-11.203c-2.5117 0-4.5469-2.0352-4.5469-4.5469v-10.938c-0.023437-1.2227 0.44531-2.4023 1.3008-3.2773 0.85547-0.87109 2.0273-1.3633 3.2461-1.3633z"/>
        <path d="m321.12 370.21h11.375c1.1992 0 2.3477 0.48437 3.1875 1.3398s1.2969 2.0117 1.2734 3.2109v11.113c0 2.4648-1.9961 4.4609-4.4609 4.4609h-11.375c-2.4648 0-4.4609-1.9961-4.4609-4.4609v-11.113c-0.023437-1.1992 0.43359-2.3555 1.2734-3.2109s1.9883-1.3398 3.1875-1.3398z"/>
        <path d="m357.09 370.21h11.375c1.1992 0 2.3477 0.48437 3.1875 1.3398 0.83984 0.85547 1.3008 2.0117 1.2773 3.2109v11.113c0 2.4648-2 4.4609-4.4648 4.4609h-11.375c-2.4648 0-4.4609-1.9961-4.4609-4.4609v-11.113c0-2.4766 1.9844-4.5 4.4609-4.5508z"/>
        <path d="m240.27 355.16c3.168 1.8555 5.9336 4.3242 8.1406 7.2617 2.1016 3.0391 3.5078 6.5039 4.1094 10.148 0.89062 5.2617 1.3008 10.59 1.2266 15.926v10.676c0.14062 1.8086 0.58594 3.5859 1.3125 5.25 0.55469 0.99219 1.3711 1.8086 2.3633 2.3633 1.5703 0.48828 3.1797 0.83984 4.8125 1.0469 1.8477 0.24219 3.5195 1.2227 4.6367 2.7148 1.293 1.7734 1.9414 3.9336 1.8359 6.125 0 5.9492-3.5859 8.75-10.852 8.75h0.003906c-4.1289 0.078125-8.2148-0.85547-11.902-2.7148-3.3633-1.8203-6.1523-4.5469-8.0469-7.875-1.957-3.5977-2.9805-7.6289-2.9766-11.723 0-7.4375 0-13.387-0.4375-17.5 0.011719-2.9297-0.19141-5.8516-0.61328-8.75-0.48047-2.7148-1.6211-5.2695-3.3242-7.4375-1.6367-1.8047-3.5195-3.3672-5.6016-4.6367-1.8359-1.0391-3.5156-2.3359-4.9844-3.8516-1.0703-1.6289-1.5625-3.5703-1.4023-5.5117-0.24219-3.2891 1.3789-6.4336 4.1992-8.1367 2.7188-1.5703 5.2422-3.4492 7.5273-5.6016 1.5742-1.6602 2.6641-3.7148 3.1484-5.9492 0.64453-2.5781 0.99609-5.2188 1.0508-7.875 0-2.8867 0-9.7109 0.4375-20.648v-0.003906c-0.13672-6.0508 2.2031-11.898 6.4766-16.188 4.4453-4.1445 10.375-6.3203 16.449-6.0352 7.2617 0 10.852 2.9766 10.852 8.75h-0.003906c0.13281 2.2227-0.51563 4.418-1.8359 6.2109-1.1133 1.4844-2.793 2.4336-4.6367 2.625-2.0742 0.22656-4.0859 0.81641-5.9492 1.75-1.3086 1.1641-2.0977 2.8047-2.1875 4.5508 0 2.2734-0.52344 6.6484-0.69922 13.039h-0.003906c0.019531 5.2109-0.36328 10.418-1.1367 15.574-0.48828 3.6602-1.8047 7.1602-3.8477 10.238-2.168 3.0156-4.9375 5.5508-8.1406 7.4375z"/>
        <path d="m405.04 347.46c-2.0391-3.0859-3.3828-6.5781-3.9375-10.234-0.73047-5.1602-1.1133-10.363-1.1406-15.578 0.039062-4.3516-0.16797-8.7031-0.60938-13.035-0.09375-1.75-0.88281-3.3867-2.1875-4.5508-1.8633-0.93359-3.8789-1.5273-5.9531-1.75-1.8477-0.16797-3.5391-1.125-4.6367-2.625-1.3164-1.793-1.9688-3.9922-1.8359-6.2109 0-5.7734 3.5859-8.75 10.762-8.75 6.1016-0.30078 12.062 1.8789 16.539 6.0352 4.25 4.2969 6.5547 10.148 6.3867 16.188v20.648 0.003906c0.125 2.6523 0.50781 5.2891 1.1367 7.875 0.48828 2.2305 1.5742 4.2891 3.1484 5.9492 2.25 2.1562 4.7461 4.0352 7.4375 5.5977 2.8555 1.6836 4.5156 4.832 4.2891 8.1406 0.13281 1.9492-0.39062 3.8906-1.4883 5.5117-1.4336 1.5195-3.0859 2.8164-4.8984 3.8477-2.1055 1.2734-4.0195 2.8359-5.6875 4.6406-1.3086 2.1523-2.1172 4.5742-2.3633 7.0859-0.41797 2.8984-0.65234 5.8203-0.69922 8.75v17.5c0.074219 4.0938-0.92188 8.1328-2.8867 11.727-1.9297 3.3281-4.75 6.0547-8.1406 7.875-3.6836 1.8672-7.7695 2.8008-11.898 2.7109-7.1758 0-10.762-2.8867-10.762-8.75-0.10547-2.1914 0.54297-4.3516 1.8359-6.125 1.1172-1.4922 2.7891-2.4688 4.6367-2.7109 1.6055-0.19531 3.1914-0.54687 4.7266-1.0508 1.0273-0.50391 1.8594-1.3359 2.3633-2.3633 0.80078-1.6406 1.2773-3.4258 1.3984-5.25v-10.676c-0.078125-5.332 0.33203-10.664 1.2266-15.926 0.5625-3.6562 1.9688-7.1289 4.1133-10.148 2.2031-2.9336 4.9688-5.4023 8.1367-7.2617-3.4844-1.6836-6.5586-4.1016-9.0117-7.0898z"/>
        <path d="m444.15 126.88c-4.457-0.23828-8.7891 1.5273-11.812 4.8125-3.1133 3.6055-4.7109 8.2773-4.4609 13.039-0.19141 4.668 1.4023 9.2383 4.4609 12.773 3.0156 3.3086 7.3438 5.1055 11.812 4.8984 4.4648 0.16797 8.7812-1.6211 11.812-4.8984 3.0234-3.6211 4.5859-8.2383 4.375-12.949 0.23047-4.7422-1.3281-9.3945-4.375-13.039-3.0742-3.1914-7.3867-4.8828-11.812-4.6367z"/>
        <path d="m563.24 84.352h-38.238v-49.352h-294.61l-99.137 101.41v388.59h393.75v-318.15h38.238zm-337.93-19.164v45.676c0 11.637-13.125 20.387-24.062 20.387h-40.426zm282.19 442.31h-358.75v-358.75h52.5c19.688 0 41.562-15.574 41.562-37.887v-58.363h264.69v31.852h-224.26v122.5h224.26zm-31.938-362.77c0.089844 5.6758-1.3633 11.27-4.1992 16.188-2.6992 4.7227-6.6328 8.625-11.375 11.285-9.875 5.3672-21.801 5.3672-31.676 0-4.7695-2.6562-8.7344-6.5586-11.461-11.285-5.7148-10.039-5.7148-22.34 0-32.375 2.8516-4.7656 6.9727-8.6406 11.898-11.203 4.7461-2.4805 10.047-3.7148 15.398-3.5859 5.5703-0.070312 11.059 1.3164 15.926 4.0234 4.7422 2.6289 8.6758 6.5 11.375 11.203 2.6953 4.8125 4.1094 10.234 4.1133 15.75zm-86.801 9.9766v-0.003906c-1.0977-1.0312-2.3711-1.8633-3.7617-2.4492-2.0898-0.83984-4.2227-1.5703-6.3867-2.1875-3.3242-0.98828-6.5703-2.2188-9.7148-3.6758-2.5508-1.2734-4.7695-3.1328-6.4727-5.4258-1.9688-2.8398-2.9258-6.2617-2.7148-9.7109-0.21484-5.2305 2.0977-10.242 6.2148-13.477 4.7891-3.1211 10.492-4.5391 16.188-4.0234 5.8359-0.26172 11.594 1.4336 16.363 4.8125 4.1523 3.2812 6.5977 8.2695 6.6484 13.562h-16.188c-0.023438-1.8125-0.82031-3.5312-2.1875-4.7266-1.457-1.168-3.2969-1.7578-5.1641-1.6602-1.5781-0.09375-3.1406 0.40625-4.375 1.3984-1.207 1.2266-1.7852 2.9453-1.5625 4.6523 0.22266 1.7109 1.2188 3.2227 2.7031 4.0977 2.7852 1.4961 5.7148 2.6953 8.75 3.5898 3.3125 1.0781 6.5586 2.3633 9.7109 3.8477 2.5078 1.2695 4.6914 3.0977 6.3867 5.3398 1.8477 2.5352 2.8008 5.6133 2.7148 8.75 0.035157 3.3594-0.875 6.6641-2.625 9.5352-1.9023 2.9648-4.6016 5.332-7.7891 6.8242-3.7461 1.7578-7.8477 2.6289-11.988 2.5391-4.1289 0.078125-8.2344-0.66797-12.074-2.1875-3.4805-1.2734-6.5156-3.5195-8.75-6.4766-2.0781-2.9727-3.1758-6.5195-3.1484-10.148h15.926-0.003906c0.11328 1.957 0.95312 3.8008 2.3633 5.1641 1.4414 1.2734 3.3281 1.9336 5.25 1.8359 1.8789 0.097656 3.7344-0.45703 5.25-1.5742 1.3164-0.98047 2.043-2.5625 1.9258-4.1992 0.10156-1.4922-0.44141-2.957-1.4883-4.0273zm-39.551-40.512v41.824-0.003906c0.34766 5.5234-1.6172 10.945-5.4219 14.965-4.0391 3.6445-9.3594 5.5312-14.789 5.25-5.7109 0.26563-11.305-1.7109-15.574-5.5156-4.0664-4.1641-6.1953-9.8477-5.8633-15.66h14.875c-0.17188 2.0508 0.38672 4.0938 1.5742 5.7734 1.1094 1.3555 2.8008 2.1055 4.5508 2.0117 1.5938 0.085937 3.1367-0.55859 4.1992-1.75 1.1094-1.4453 1.6406-3.2539 1.4883-5.0742v-41.824zm189.61 61.25-14.961-0.003906-25.113-37.711v37.887h-14.875v-61.25h14.875l25.023 38.062v-38.238h14.961z"/>
    </g>
</svg>
